<svg id="Слой_1" data-name="Слой 1" xmlns="http://www.w3.org/2000/svg" viewBox="0 0 2155.08 377.64"><defs><style>.cls-1{fill:#fdffae;}</style></defs><title>STARS2</title><path class="cls-1" d="M485.67-4.24,452,121.76l111.82,74-132.62,4-33.66,126-48.3-123.6-132.62,4,102.76-80.33L271.09,2.16,382.91,76.09Z" transform="translate(0 4.24)"/><path class="cls-1" d="M239.83,99l21.44,69.79h69.39l-56.14,43.13L296,281.72l-56.13-43.13L183.7,281.72l21.44-69.79L149,168.8h69.39Z" transform="translate(0 4.24)"/><path class="cls-1" d="M90.83,99l21.44,69.79h69.39l-56.14,43.13L147,281.72,90.83,238.59,34.7,281.72l21.44-69.79L0,168.8H69.39Z" transform="translate(0 4.24)"/><path class="cls-1" d="M513.52,129.67l76.83,12,34.73-11.91,12.75,19.35,76.82,12-76.91,42.21-.13,87.73-47.4-61.65-76.88,42.22L561,191.32Z" transform="translate(0 4.24)"/><path class="cls-1" d="M760.83,96l28,67.37h90.46L806.06,205l28,67.37-73.18-41.63-73.18,41.64,28-67.38-73.18-41.64h90.46Z" transform="translate(0 4.24)"/><path class="cls-1" d="M1042.68,257.75l-96.23-36.1-63.91,80.27L887,199.35l-96.24-36.1,99-27.3,4.39-102.57,56.75,85.7,99-27.3L985.94,172Z" transform="translate(0 4.24)"/><path class="cls-1" d="M1186.33,95.32l19.06,47.54,94,29.39-93.86,33.29.16,101.4-58.17-80.83-93.86,33.29,57.91-83.25-58.24-80.83,94,29.38Z" transform="translate(0 4.24)"/><path class="cls-1" d="M1367.83,90l30.42,62.88h98.45l-79.65,38.86,30.43,62.88-79.65-38.86-79.64,38.86,30.42-62.88L1239,152.89h98.45Z" transform="translate(0 4.24)"/><path class="cls-1" d="M1464,239.78l25.32-61.8-55.67-51.63,71.32,13.43L1530.24,78,1549,148.12l71.33,13.39-59.72,29.9,18.72,70.1-55.67-51.63Z" transform="translate(0 4.24)"/><path class="cls-1" d="M1705.8,99.72l1.79,61.78,67.66,23.76-66.55,14.42,1.79,61.78-42.93-52.87L1601,223l40-47.09L1598.11,123l67.66,23.76Z" transform="translate(0 4.24)"/><path class="cls-1" d="M1737.33,136.7l68.52,19.5,40-59.35,2.35,71.4,68.52,19.5-67.06,24.63,2.35,71.4-43.8-56.18-67.06,24.62,40-59.34Z" transform="translate(0 4.24)"/><path class="cls-1" d="M1960.49,86.8l73.84,80.84,120.75-46.33L2080,217.6l73.82,80.84-120.27-21.33-75.12,96.29.81-109.47L1839,242.6l120.74-46.33Z" transform="translate(0 4.24)"/></svg>