<svg id="Слой_1" data-name="Слой 1" xmlns="http://www.w3.org/2000/svg" viewBox="0 0 2127.96 329.93"><defs><style>.cls-1{fill:#fdffae;}</style></defs><title>STARS1</title><path class="cls-1" d="M35.26,64.72l74.44,51.84,67.76-53.12L155.7,148.59l74.44,51.84-87.88.79L120.5,286.37,87.94,201.71.06,202.5l67.76-53.12Z" transform="translate(-0.06 -9.37)"/><path class="cls-1" d="M425.34,9.37l-33.66,126L503.5,209.32l-132.62,4-33.66,126-48.3-123.57-132.62,4,102.76-80.33L210.76,15.77,322.58,89.7Z" transform="translate(-0.06 -9.37)"/><path class="cls-1" d="M537.5,63.83l21.44,69.79h69.39l-56.14,43.13,21.44,69.79L537.5,203.4l-56.13,43.14,21.44-69.79-56.14-43.13h69.39Z" transform="translate(-0.06 -9.37)"/><path class="cls-1" d="M653.88,66.22,714.31,123l87.1-41.85-49.75,77L812.09,215l-91.18-9.25-49.74,77L664.56,200l-91.17-9.25,87.09-41.85Z" transform="translate(-0.06 -9.37)"/><path class="cls-1" d="M964.24,222.82l-76.48,14-28.84,22.71-18.42-14-76.48,14,58.65-65.24-28.85-82.85L858.92,154l58.65-65.24-18.42,91.52Z" transform="translate(-0.06 -9.37)"/><path class="cls-1" d="M1059.5,86.62l28,67.37h90.46l-73.18,41.63,28,67.37-73.18-41.63L986.32,263l27.95-67.37L941.09,154h90.46Z" transform="translate(-0.06 -9.37)"/><path class="cls-1" d="M1160.71,95.9l80.45,31.84,55.73-67-6,86.73,80.45,31.84L1287.18,201l-6,86.73-46-73.28L1151,236.23l55.73-67Z" transform="translate(-0.06 -9.37)"/><path class="cls-1" d="M2033.9,42.06l.16,101.41,94,29.38-93.86,33.29.16,101.41-58.17-80.83L1882.29,260l57.91-83.24L1882,95.92l94,29.39Z" transform="translate(-0.06 -9.37)"/><path class="cls-1" d="M1496.5,80.62l30.42,62.87h98.45l-79.65,38.87,30.43,62.88-79.65-38.87-79.64,38.87,30.42-62.88-79.65-38.87h98.45Z" transform="translate(-0.06 -9.37)"/><path class="cls-1" d="M1852.35,264.35l-96.23-36.09-63.91,80.26L1696.64,206l-96.24-36.09,99-27.3L1703.79,40l56.75,85.7,99-27.3-63.9,80.26Z" transform="translate(-0.06 -9.37)"/></svg>