<svg width="1920" height="145" viewBox="0 0 1920 145" fill="none" xmlns="http://www.w3.org/2000/svg">
<path d="M176 10.656C107.913 -4.5802 86 16.656 -63 82.156L-49.5 144.156H1382.5H1964C1981.33 112.989 2005.6 64.6558 1964 64.6558C1912 64.6558 1808.5 42.656 1729 10.656C1649.5 -21.344 1534 26.6558 1470.5 50.6558C1407 74.6558 1321 32.656 1235.5 10.656C1150 -11.344 1104 64.6558 1038 64.6558C956.5 64.6558 952.5 18.2603 877 10.656C738 -3.34395 719.5 64.6558 640 64.6558C560.5 64.6558 548 26.656 466.5 10.656C385 -5.34395 387 64.6558 295.5 64.6558C237.5 64.6558 247.5 26.656 176 10.656Z" fill="#D5FFC6"/>
</svg>
