<svg width="1920" height="145" viewBox="0 0 1920 145" fill="none" xmlns="http://www.w3.org/2000/svg">
<path d="M176 11.5C107.913 -3.7362 86 17.5 -63 83L-49.5 145H1382.5H1964C1981.33 113.833 2005.6 65.4998 1964 65.4998C1912 65.4998 1808.5 43.5 1729 11.5C1649.5 -20.5 1534 27.4998 1470.5 51.4998C1407 75.4998 1321 33.5 1235.5 11.5C1150 -10.5 1104 65.4998 1038 65.4998C956.5 65.4998 952.5 19.1043 877 11.5C738 -2.49996 719.5 65.4998 640 65.4998C560.5 65.4998 548 27.5 466.5 11.5C385 -4.49996 387 65.4998 295.5 65.4998C237.5 65.4998 247.5 27.5 176 11.5Z" fill="#A3DEFF"/>
</svg>
